<?xml version="1.0" encoding="utf-8"?>
<!-- Generator: Adobe Illustrator 25.1.0, SVG Export Plug-In . SVG Version: 6.00 Build 0)  -->
<svg version="1.1" xmlns="http://www.w3.org/2000/svg" xmlns:xlink="http://www.w3.org/1999/xlink" x="0px" y="0px"
	 viewBox="0 0 1000 1000" style="enable-background:new 0 0 1000 1000;" xml:space="preserve">
<style type="text/css">
	.st0{display:none;}
	.st1{display:inline;}
</style>
<g id="Layer_1" class="st0">
	<path class="st1" d="M900,387.29H681.68v0h-3.74h-10.81h-80.39h-47.71h-6.29h-1.3h-9.6h-36.81h-9.92h-0.97l-118.1,178.9
		l44.04-178.9h-22.59h-25.11h-44.96h-10.89h-36.81h-10.16h-0.74L100,612.71h10.89h36.81h10.89l49.44-74.9h107.28l-18.44,74.9h22.45
		h6h10.89h8.36h28.45h2.18h8.71L504.56,430h23.97l-44.98,182.71h47.71h80.39h25.73h21.98L704.33,430h29.95h31.66l-44.98,182.71
		h47.71L813.65,430h75.84L900,387.29z M656.62,430l-12.6,51.19h-80.39l12.6-51.19H656.62z M236.24,495.11L279.22,430h62.64
		l-16.03,65.11H236.24z M541.77,570l11.35-46.12h80.39L622.16,570H541.77z" fill="#ffffff"/>
</g>
<g id="Layer_2">
	<g>
		<path d="M500,228.12c0.78,0,1.93,0.21,2.93,1.21l267.73,267.73c1.62,1.62,1.62,4.25,0,5.86L502.93,770.66
			c-1,1-2.15,1.21-2.93,1.21c-0.78,0-1.93-0.21-2.93-1.21L229.34,502.93c-1.62-1.62-1.62-4.25,0-5.86l267.73-267.73
			C498.07,228.33,499.22,228.12,500,228.12 M500,200c-8.26,0-16.52,3.15-22.82,9.45L209.45,477.18c-12.6,12.6-12.6,33.03,0,45.63
			l267.73,267.73c6.3,6.3,14.56,9.45,22.82,9.45s16.52-3.15,22.82-9.45l267.73-267.73c12.6-12.6,12.6-33.03,0-45.63L522.82,209.45
			C516.52,203.15,508.26,200,500,200L500,200z" fill="#ffffff"/>
	</g>
	<g>
		<path d="M480.61,335.05l-4.75,11.69h-22.92l35.89-81.05h21.19l35.89,81.05h-23.04l-4.75-11.69H480.61z M499.48,288.62h-0.23
			l-11,27.33h22.23L499.48,288.62z" fill="#ffffff"/>
		<path d="M392.55,360.92l23.39,55h0.23l23.27-55h24.43l-36.47,81.05H404.6l-36.47-81.05H392.55z" fill="#ffffff"/>
		<path d="M469.9,405.61c3.13-3.82,6.95-6.6,11.69-8.1v-0.23c-7.29-4.28-11-9.49-11-15.86c0-14.13,14.13-22.93,34.62-22.93
			c20.38,0,34.39,8.8,34.39,22.93c0,6.37-3.71,11.69-11,15.86v0.23c4.75,1.51,8.57,4.28,11.69,8.1c3.13,3.82,4.63,8.1,4.63,12.85
			c0.35,15.28-18.18,26.17-39.71,25.94c-21.54,0.23-40.18-11-39.83-25.94C465.38,413.72,466.89,409.44,469.9,405.61z M505.21,406.66
			c-9.73,0-15.98,3.47-15.98,8.57c0,5.56,6.14,8.68,15.98,8.68c9.73,0,15.86-3.13,15.86-8.68
			C521.08,410.13,514.94,406.66,505.21,406.66z M505.21,374.93c-7.76,0-12.39,2.89-12.39,7.64s4.86,7.76,12.39,7.76
			c7.53,0,12.27-3.01,12.27-7.76S512.74,374.93,505.21,374.93z" fill="#ffffff"/>
		<path d="M549.1,380.72v-19.8h78.85v19.8h-28.13v61.25H577v-61.25H549.1z" fill="#ffffff"/>
		<path d="M296.05,475.95v-19.8h78.85v19.8h-28.14v61.25h-22.81v-61.25H296.05z" fill="#ffffff"/>
		<path d="M410.56,456.15v29.18h32.07v-29.18h22.81v81.05h-22.81v-30.8h-32.07v30.8h-22.81v-81.05H410.56z" fill="#ffffff"/>
		<path d="M506.43,456.15v81.05h-22.81v-81.05H506.43z" fill="#ffffff"/>
		<path d="M547.88,456.15l33.81,48.05h0.23v-48.05h22.81v81.05h-23.27l-33.81-48.05h-0.23v48.05h-22.81v-81.05H547.88z" fill="#ffffff"/>
		<path d="M645.6,456.15v32.65h0.23l29.64-32.65h29.64l-32.54,35.31l33,45.73h-28.83l-19.45-30.33h-0.23l-11.46,12.39v17.95h-22.81
			v-81.05H645.6z" fill="#ffffff"/>
		<path d="M364.48,571.18v-19.8h78.85v19.8h-28.14v61.25h-22.81v-61.25H364.48z" fill="#ffffff"/>
		<path d="M479.45,551.38l33.81,48.05h0.23v-48.05h22.81v81.05h-23.27l-33.81-48.05h-0.23v48.05h-22.81v-81.05H479.45z" fill="#ffffff"/>
		<path d="M577.17,551.38v32.65h0.23l29.64-32.65h29.64l-32.54,35.31l33,45.73h-28.83l-19.45-30.33h-0.23l-11.46,12.39v17.95h-22.81
			v-81.05H577.17z" fill="#ffffff"/>
		<path d="M471.75,685.4v-21.65l27.67-13.89h20.72v77.81h-22.23v-55.58L471.75,685.4z" fill="#ffffff"/>
	</g>
</g>
</svg>
