<svg
    version="1.1"
    id="Layer_1"
    xmlns="http://www.w3.org/2000/svg"
    xmlns:xlink="http://www.w3.org/1999/xlink"
    viewBox="0 0 100 110"
    xml:space="preserve"
  >
    <path
      class="st0"
      d="M82,0.9L82,0.9L82,0.9l-64,0v64l64,0L82,0.9z M67.3,33.7h13.1v26.2L67.3,33.7z M80.4,32.1H66.5l-4.9-9.7L80.4,3.6V32.1z
	 M34.5,33.7h13.6L20.9,60.8L34.5,33.7z M35.3,32.1L50,2.7l9.7,19.4l-10,10H35.3z M60.4,23.6l4.3,8.5H51.9L60.4,23.6z M79.3,2.5
	L60.9,20.9L51.7,2.5H79.3z M19.6,2.5h28.7L19.6,59.9V2.5z M20.7,63.3l28.5-28.5v28.5H20.7z M50.8,63.3V33.7h14.7l14.8,29.6H50.8z"
  fill="#ffffff"
    />
    <g class="st1">
      <path d="M36,74.7L31.4 93.2 35.3 93.2 39.9 74.7 z" 
  fill="#ffffff"
      />
      <path
        d="M34.6,74.7h-3h-0.9L21,89.4l3.6-14.7h-1.9h-2.1H17h-0.9h-3h-0.8h-0.1L0,93.2h0.9h3h0.9L8.9,87h8.8l-1.5,6.1H18h0.5h0.9H20
		h2.3h0.2h0.7l12.2-18.5H34.6z M11.2,83.6l3.5-5.3h5.1l-1.3,5.3H11.2z"
  fill="#ffffff"

      />
      <path
        d="M99.1,74.7h-3h-0.9l0,0h-8.9h-1.7h-2.2l-3.7,14.9h-1.4h-0.2h-8.2l0.9-3.8h8.3l0.9-3.5h-8.4l1-4.2H80l0.9-3.5h-8.3h-1.9
		h-0.2h-1.8H52.5v0h-1.2h-6.3h-2.7h-1.2l-4.5,18.5h3.9h6.3h2.4h1.5l3.7-15h2.8h2.3l-3.7,15h3.9l3.7-15h4.4l-1,4.2l-0.9,3.5h0
		l-0.9,3.8h0l-0.9,3.5l12.2,0l0,0l1.5,0l0,0h3.9l0,0l1.3,0l0,0h0.9h3h0.9L100,74.7H99.1z M50.5,78.2l-1,4.2h-6.3l1-4.2H50.5z
		 M41.4,89.7l0.9-3.8h6.3l-0.9,3.8H41.4z M85.3,89.7h-2.8l2.8-11.4h7.5L85.3,89.7z"
  fill="#ffffff"

      />
    </g>
    <g class="st2">
      <path
        d="M32.4,100.3H34v3.4h1.1v-3.4h1.7v8.7h-1.7v-3.9H34v3.9h-1.7V100.3z"
  fill="#ffffff"

      />
      <path
        d="M44.9,102.6v4c0,1.7-0.8,2.5-2.3,2.5c-1.4,0-2.2-0.8-2.2-2.5v-4.1c0-1.7,0.9-2.4,2.3-2.4C44,100.1,44.9,100.9,44.9,102.6z
		 M42,102.4v4.5c0,0.5,0.2,0.8,0.6,0.8c0.4,0,0.6-0.3,0.6-0.8v-4.5c0-0.5-0.2-0.8-0.6-0.8C42.2,101.6,42,101.8,42,102.4z"
  fill="#ffffff"

      />
      <path
        d="M50.1,100.3v6.6c0,0.5,0.2,0.8,0.5,0.8c0.4,0,0.5-0.3,0.5-0.8v-6.6h1.7v6.5c0,1.5-0.7,2.3-2.3,2.3c-1.5,0-2.2-0.7-2.2-2.3
		v-6.5H50.1z"
  fill="#ffffff"

      />
      <path
        d="M57.8,106.3v0.6c0,0.6,0.1,0.8,0.5,0.8c0.4,0,0.5-0.4,0.5-0.8c0-0.8-0.2-1.1-1-1.8c-1-0.8-1.5-1.3-1.5-2.6
		c0-1.2,0.4-2.4,2.1-2.4c1.8,0,2,1.2,2,2.2v0.5h-1.6v-0.5c0-0.5-0.1-0.8-0.4-0.8c-0.3,0-0.4,0.3-0.4,0.8c0,0.5,0.1,0.8,0.8,1.3
		c1.3,1,1.7,1.6,1.7,3c0,1.4-0.5,2.5-2.2,2.5c-1.7,0-2.1-1-2.1-2.3v-0.5H57.8z"
  fill="#ffffff"

      />
      <path
        d="M67.3,105.1h-1.8v2.4h2.1l-0.2,1.5h-3.6v-8.7h3.6v1.5h-1.9v1.9h1.8V105.1z"
  fill="#ffffff"

      />
    </g>
  </svg>